<?xml version="1.0" encoding="UTF-8"?>
<svg id="Camada_2" data-name="Camada 2" xmlns="http://www.w3.org/2000/svg" viewBox="0 0 451.5 451">
  <defs>
    <style>
      .cls-1 {
        fill: #000;
        stroke: #fff;
        stroke-width: 50px;
      }

      .cls-1, .cls-2 {
        stroke-miterlimit: 10;
      }

      .cls-3 {
        fill: #fff;
        stroke-width: 0px;
      }

      .cls-2 {
        fill: none;
        stroke: #000;
        stroke-width: 25px;
      }
    </style>
  </defs>
  <g id="Camada_2-2" data-name="Camada 2">
    <circle class="cls-1" cx="226" cy="225.5" r="200.5"/>
    <path class="cls-3" d="M309.48,329.35c0,11.72-7.53,21.77-22.59,30.15-15.06,8.38-33.26,12.57-54.6,12.57h-89.75v-7.56h16V86.49h-16v-7.56h89.75c21.34,0,39.54,4.19,54.6,12.57,15.06,8.38,22.59,18.43,22.59,30.15v56.63c0,18.26-14.96,31.21-44.88,38.84,29.92,8.18,44.88,21.19,44.88,39.05v73.19ZM184.26,364.51V86.49h-12.87v278.03h12.87ZM258.01,196.68v-93.42c0-4.63-2.51-8.59-7.53-11.86-5.02-3.27-11.09-4.91-18.2-4.91h-22.28v126.95h22.28c7.11,0,13.18-1.64,18.2-4.91,5.02-3.27,7.53-7.22,7.53-11.86ZM258.01,347.75v-109.98c0-4.63-2.51-8.59-7.53-11.86-5.02-3.27-11.09-4.91-18.2-4.91h-22.28v143.51h22.28c7.11,0,13.18-1.64,18.2-4.91,5.02-3.27,7.53-7.22,7.53-11.86ZM283.74,185.02v-69.92c0-11.31-7.64-20.1-22.91-26.37,6.69,5.04,10.04,11.86,10.04,20.44v81.57c0,8.59-3.35,15.47-10.04,20.65,15.27-6.4,22.91-15.19,22.91-26.37ZM283.74,336.1v-86.68c0-11.17-7.64-19.96-22.91-26.37,6.69,5.18,10.04,11.99,10.04,20.44v98.54c0,8.45-3.35,15.27-10.04,20.44,15.27-6.4,22.91-15.19,22.91-26.37Z"/>
    <circle class="cls-2" cx="213" cy="224" r="200.5"/>
  </g>
</svg>